# xmcd
#
# Track frame offsets: 
#        182
#        20132
#        43030
#        58317
#        75585
#
# Disc length: 1169 seconds
#
# Revision: 2
# Processed by: cddbd v1.5.2PL0 Copyright (c) Steve Scherf et al.
# Submitted via: ExactAudioCopy v0.99pb4
#
DISCID=3e048f05
DTITLE=Huey Lewis and The News - Simple As That
DYEAR=1987
DGENRE=
TTITLE0=Simple As That
TTITLE1=Walking On A Thin Line
TTITLE2=Do You Belive In Love
TTITLE3=Bad Is Bad
TTITLE4=Workin' For A Livin'
EXTD=
EXTT0=
EXTT1=
EXTT2=
EXTT3=
EXTT4=
PLAYORDER=
